<svg xmlns="http://www.w3.org/2000/svg" width="149.191" height="43.018" viewBox="0 0 149.191 43.018">
  <g id="Group_6" data-name="Group 6" transform="translate(-13.674 -12.349)">
    <g id="Layer_2" data-name="Layer 2" transform="translate(13.674 24.655)">
      <g id="Group_1" data-name="Group 1">
        <path id="Path_1" data-name="Path 1" d="M34.506,59.417C33.8,62.1,31.024,69.671,29.988,72.75a.533.533,0,0,1-.507.362H23.5a.533.533,0,0,1-.5-.347c-1.178-3.181-7.861-23.344-9.3-28.012a.535.535,0,0,1,.513-.692h7.533a.534.534,0,0,1,.518.4c.68,2.574,4.1,14.171,4.512,15.617.448-1.515,3.859-13.051,4.54-15.618a.533.533,0,0,1,.518-.4h5.791a.533.533,0,0,1,.518.4C38.8,47,42.067,58.23,42.515,59.744c.343-1.194,2.759-9.1,3.981-13.25a3.387,3.387,0,0,1,3.25-2.433h5.276a.535.535,0,0,1,.513.692c-1.442,4.67-8.169,24.833-9.35,28.012a.533.533,0,0,1-.5.347H39.7a.533.533,0,0,1-.507-.362C38.142,69.673,35.213,62.1,34.506,59.417Z" transform="translate(-13.674 -44.061)" fill="#ff275b"/>
      </g>
    </g>
    <g id="Layer_3" data-name="Layer 3" transform="translate(82.164 12.349)">
      <g id="Group_2" data-name="Group 2">
        <path id="Path_2" data-name="Path 2" d="M191.711,48.1a6.65,6.65,0,0,1-1.842-.438,3.072,3.072,0,0,1-1.988-2.436,10.414,10.414,0,0,1-.166-1.949V12.845a.5.5,0,0,0-.585-.489l-7.219,1.14a.5.5,0,0,0-.425.489V44.905a16.334,16.334,0,0,0,.47,4.087,6.512,6.512,0,0,0,1.767,3.085,8.67,8.67,0,0,0,3.535,1.976,20.176,20.176,0,0,0,5.388.748.5.5,0,0,0,.512-.413l1-5.712A.5.5,0,0,0,191.711,48.1Z" transform="translate(-179.486 -12.349)" fill="#ff275b"/>
      </g>
    </g>
    <g id="Layer_4" data-name="Layer 4" transform="translate(54.387 23.77)">
      <g id="Group_3" data-name="Group 3">
        <path id="Path_3" data-name="Path 3" d="M124.78,41.93a19.243,19.243,0,0,1,6.134.837,9.533,9.533,0,0,1,3.931,2.4,8.831,8.831,0,0,1,2.091,3.792,18.726,18.726,0,0,1,.613,4.963V70.8a.494.494,0,0,1-.392.485q-1.728.362-4.571.836a47.724,47.724,0,0,1-7.7.529,24.392,24.392,0,0,1-5.158-.5,11.183,11.183,0,0,1-3.987-1.645,7.521,7.521,0,0,1-2.565-2.983,10.3,10.3,0,0,1-.892-4.517,8.555,8.555,0,0,1,1.032-4.349,7.94,7.94,0,0,1,2.76-2.844,12.476,12.476,0,0,1,3.959-1.533,22.235,22.235,0,0,1,4.628-.474,26.368,26.368,0,0,1,2.872.14,12.861,12.861,0,0,1,2.035.362v-.781a4.6,4.6,0,0,0-1.282-3.4q-1.284-1.283-4.461-1.283a28.476,28.476,0,0,0-4.182.307,19.241,19.241,0,0,0-3.027.678.491.491,0,0,1-.633-.394l-.9-5.68a.493.493,0,0,1,.352-.553q.6-.168,1.392-.351,1.087-.251,2.37-.446t2.7-.335Q123.33,41.931,124.78,41.93Zm.669,24.312q1.226,0,2.342-.056a16.057,16.057,0,0,0,1.784-.167v-6.3q-.5-.111-1.505-.223a16.785,16.785,0,0,0-1.84-.112,16.526,16.526,0,0,0-2.2.139,5.757,5.757,0,0,0-1.812.53,3.1,3.1,0,0,0-1.227,1.06,2.949,2.949,0,0,0-.446,1.673,2.849,2.849,0,0,0,1.31,2.7A7.238,7.238,0,0,0,125.449,66.242Z" transform="translate(-112.289 -41.93)" fill="#ff275b"/>
      </g>
    </g>
    <g id="Layer_5" data-name="Layer 5" transform="translate(94.667 20.651)">
      <g id="Group_4" data-name="Group 4">
        <path id="Path_4" data-name="Path 4" d="M241.8,50.436a35.92,35.92,0,0,1-6.064,7.794c-4.988,4.679-10.675,5.634-15.508.158a10.106,10.106,0,0,1,.031-13.246,9.71,9.71,0,0,1,11.389-2.048L226.289,49.6a1.177,1.177,0,0,0,.161,1.658l4.1,3.379a1.178,1.178,0,0,0,1.658-.16l9.6-11.663a.787.787,0,0,0-.037-1.043l-1.857-1.955a17.366,17.366,0,1,0-4.1,27.111,21.72,21.72,0,0,0,8.147-8.24c.78-1.285,1.754-2.852,2.879-4.5Z" transform="translate(-209.97 -34.416)" fill="#6631f7"/>
      </g>
    </g>
    <g id="Layer_6" data-name="Layer 6" transform="translate(127.813 20.508)">
      <g id="Group_5" data-name="Group 5" transform="translate(0 0)">
        <path id="Path_5" data-name="Path 5" d="M319.93,38.982c-4.466-4.242-11.417-6.182-17.312-4.016-5.287,1.942-9.189,8.069-12.034,12.412-.105.161-.206.317-.308.475l5.167,3.835c5.1-6.845,12.4-13.605,19.2-7.144A9.7,9.7,0,0,1,304.16,60.49l4.964-6.505a1.178,1.178,0,0,0-.222-1.651l-4.226-3.224a1.178,1.178,0,0,0-1.651.222l-9.083,11.9a.788.788,0,0,0,.084,1.049l1.984,1.884A17.367,17.367,0,0,0,319.93,38.982Z" transform="translate(-290.277 -34.072)" fill="#6631f7"/>
      </g>
    </g>
  </g>
</svg>
