<svg id="Iconly_Light-outline_Tick_Square" data-name="Iconly/Light-outline/Tick Square" xmlns="http://www.w3.org/2000/svg" width="20" height="20" viewBox="0 0 20 20">
  <g id="Tick_Square" data-name="Tick Square" transform="translate(0 0)">
    <path id="Tick_Square-2" data-name="Tick Square" d="M5.665,20a5.5,5.5,0,0,1-4.109-1.651A6.043,6.043,0,0,1,0,14.084V5.916A6.044,6.044,0,0,1,1.558,1.651,5.5,5.5,0,0,1,5.665,0h8.67a5.5,5.5,0,0,1,4.109,1.651A6.043,6.043,0,0,1,20,5.916v8.168a6.042,6.042,0,0,1-1.557,4.265A5.5,5.5,0,0,1,14.333,20ZM1.5,5.916v8.168c0,2.683,1.634,4.416,4.164,4.416h8.669c2.532,0,4.167-1.733,4.167-4.416V5.916A4.579,4.579,0,0,0,17.374,2.7a4.04,4.04,0,0,0-3.039-1.2H5.665C3.135,1.5,1.5,3.234,1.5,5.916Zm6.867,7.061L8.284,12.9,5.909,10.53A.75.75,0,0,1,6.886,9.4l.084.073,1.843,1.842L13.029,7.1a.75.75,0,0,1,1.133.976l-.073.085L9.344,12.9a.75.75,0,0,1-.977.073Z" transform="translate(0 0)" fill="#6631f7"/>
  </g>
</svg>
