<svg id="Instagram" xmlns="http://www.w3.org/2000/svg" xmlns:xlink="http://www.w3.org/1999/xlink" width="17.692" height="17.692" viewBox="0 0 17.692 17.692">
  <defs>
    <linearGradient id="linear-gradient" x1="0.5" x2="1.116" y2="1" gradientUnits="objectBoundingBox">
      <stop offset="0" stop-color="#a63db2"/>
      <stop offset="0.476" stop-color="#ffa337"/>
      <stop offset="1" stop-color="#fd2c7f"/>
    </linearGradient>
    <clipPath id="clip-path">
      <path id="path-1" d="M0,8.846a8.846,8.846,0,1,1,8.846,8.846A8.846,8.846,0,0,1,0,8.846Z" transform="translate(0 0)" fill="none"/>
    </clipPath>
  </defs>
  <g id="Instagram-2" data-name="Instagram">
    <g id="back">
      <path id="path-1-2" data-name="path-1" d="M0,8.846a8.846,8.846,0,1,1,8.846,8.846A8.846,8.846,0,0,1,0,8.846Z" transform="translate(0 0)" fill="url(#linear-gradient)"/>
    </g>
    <g id="Shape_Clipped" data-name="Shape Clipped">
      <path id="path-1-3" data-name="path-1" d="M0,8.846a8.846,8.846,0,1,1,8.846,8.846A8.846,8.846,0,0,1,0,8.846Z" transform="translate(0 0)" fill="none"/>
      <g id="Shape_Clipped-2" data-name="Shape Clipped" clip-path="url(#clip-path)">
        <path id="Shape" d="M2.793,9.476a3.506,3.506,0,0,1-1.154-.221A2.317,2.317,0,0,1,.8,8.706,2.32,2.32,0,0,1,.25,7.865,3.5,3.5,0,0,1,.029,6.711C.005,6.2,0,6.031,0,4.752S.005,3.311.029,2.793A3.484,3.484,0,0,1,.25,1.639,2.325,2.325,0,0,1,.8.8,2.327,2.327,0,0,1,1.64.25,3.508,3.508,0,0,1,2.793.029C3.306.005,3.475,0,4.752,0S6.2.005,6.711.029A3.509,3.509,0,0,1,7.865.25,2.325,2.325,0,0,1,8.706.8a2.326,2.326,0,0,1,.549.842,3.531,3.531,0,0,1,.221,1.154c.024.519.029.689.029,1.959S9.5,6.193,9.476,6.711a3.531,3.531,0,0,1-.221,1.154,2.436,2.436,0,0,1-1.39,1.39,3.506,3.506,0,0,1-1.154.221C6.2,9.5,6.029,9.5,4.752,9.5S3.306,9.5,2.793,9.476ZM2.832.882a2.627,2.627,0,0,0-.883.164A1.477,1.477,0,0,0,1.4,1.4a1.47,1.47,0,0,0-.356.546,2.629,2.629,0,0,0-.164.883c-.023.5-.028.649-.028,1.92s0,1.422.028,1.92a2.618,2.618,0,0,0,.164.882A1.475,1.475,0,0,0,1.4,8.1a1.479,1.479,0,0,0,.546.356,2.645,2.645,0,0,0,.883.164c.5.023.654.028,1.92.028s1.417,0,1.92-.028a2.615,2.615,0,0,0,.882-.164,1.575,1.575,0,0,0,.9-.9,2.633,2.633,0,0,0,.164-.882c.023-.5.028-.655.028-1.92s0-1.415-.028-1.92a2.635,2.635,0,0,0-.164-.882A1.477,1.477,0,0,0,8.1,1.4a1.47,1.47,0,0,0-.546-.356A2.638,2.638,0,0,0,6.673.884C6.181.861,6.032.856,4.753.856H4.326C3.442.856,3.275.862,2.832.882Zm-.52,3.87a2.44,2.44,0,1,1,2.441,2.44A2.443,2.443,0,0,1,2.312,4.752Zm.856,0A1.584,1.584,0,1,0,4.753,3.168,1.586,1.586,0,0,0,3.169,4.752Zm3.55-2.537a.57.57,0,0,1,.57-.57h0a.57.57,0,1,1-.57.57Z" transform="translate(4.284 4.284)" fill="#fff"/>
      </g>
    </g>
  </g>
</svg>
