<svg xmlns="http://www.w3.org/2000/svg" width="17.692" height="17.692" viewBox="0 0 17.692 17.692">
  <g id="Tiktok" transform="translate(0.308 0.308)">
    <g id="Youtube" transform="translate(-0.308 -0.308)">
      <g id="Youtube-2" data-name="Youtube">
        <path id="back" d="M0,8.846a8.846,8.846,0,1,1,8.846,8.846A8.846,8.846,0,0,1,0,8.846Z" transform="translate(0 0)" fill="#250c1f"/>
      </g>
    </g>
    <g id="Tik_Tok" data-name="Tik Tok" transform="translate(4.611 4.253)">
      <g id="Tik_Tok-2" data-name="Tik Tok">
        <path id="Path" d="M3.151.383V.027a2.762,2.762,0,0,0-1.965,5A2.761,2.761,0,0,1,3.151.383" transform="translate(0 3.209)" fill="#1ff6f3"/>
        <path id="Shape" d="M1.028,7.619A1.268,1.268,0,0,1,0,7.092a1.267,1.267,0,0,0,1.468-.21,1.255,1.255,0,0,0,.386-.861L1.856,0H3.365A2.077,2.077,0,0,0,3.4.381H2.3l0,6.022A1.266,1.266,0,0,1,1.028,7.619ZM5.464,2.425h0a2.115,2.115,0,0,1-1.143-.673,2.087,2.087,0,0,0,1.141.338h0v.334Z" transform="translate(2.188)" fill="#1ff6f3"/>
        <path id="Shape-2" data-name="Shape" d="M.679,6.711A1.263,1.263,0,0,1,0,5.593a1.262,1.262,0,0,1,1.642-1.2V3.21h.066a2.749,2.749,0,0,1,.374.027V4.77A1.265,1.265,0,0,0,.44,5.974a1.243,1.243,0,0,0,.24.736ZM5,1.37a2.087,2.087,0,0,1-.6-.59A2.079,2.079,0,0,1,4.08,0h.4A2.076,2.076,0,0,0,5,1.369Z" transform="translate(1.509 0.381)" fill="#f92c53"/>
        <path id="Path-2" data-name="Path" d="M6.466,0V1.168A3.6,3.6,0,0,1,4.368.5V3.549A2.776,2.776,0,0,1,0,5.814,2.777,2.777,0,0,0,4.807,3.931V.877a3.6,3.6,0,0,0,2.1.672V.047A2.1,2.1,0,0,1,6.466,0" transform="translate(1.185 2.425)" fill="#f92c53"/>
        <path id="Path-3" data-name="Path" d="M5.113,5.593V2.539a3.6,3.6,0,0,0,2.1.672V2.044A2.1,2.1,0,0,1,6.069,1.37a2.1,2.1,0,0,1-.6-.591A2.09,2.09,0,0,1,5.149,0h-1.1l0,6.022a1.267,1.267,0,0,1-2.294.689A1.263,1.263,0,0,1,2.337,4.33a1.246,1.246,0,0,1,.374.059V3.21A2.761,2.761,0,0,0,.746,7.857,2.777,2.777,0,0,0,5.113,5.593" transform="translate(0.44 0.381)" fill="#fff"/>
      </g>
    </g>
  </g>
</svg>
