<svg xmlns="http://www.w3.org/2000/svg" width="76" height="76" viewBox="0 0 76 76">
  <g id="Group_10247" data-name="Group 10247" transform="translate(-270 -208)">
    <g id="Group_9069" data-name="Group 9069" transform="translate(-5 27)">
      <rect id="Rectangle_7162" data-name="Rectangle 7162" width="76" height="76" rx="38" transform="translate(275 181)" fill="#f4f4f4"/>
    </g>
    <g id="Iconly_Light_Image_2" data-name="Iconly/Light/Image 2" transform="translate(297.771 235.772)">
      <g id="Image_2" data-name="Image 2">
        <path id="Stroke_1" data-name="Stroke 1" d="M15.022,0H5.432C2.094,0,0,2.365,0,5.713v9.029c0,3.347,2.085,5.713,5.432,5.713h9.584c3.353,0,5.436-2.365,5.436-5.713V5.713C20.457,2.365,18.372,0,15.022,0Z" transform="translate(0)" fill="none" stroke="#777" stroke-linecap="round" stroke-linejoin="round" stroke-width="1.5"/>
        <path id="Stroke_3" data-name="Stroke 3" d="M4.092,2.046A2.046,2.046,0,1,1,2.046,0,2.045,2.045,0,0,1,4.092,2.046Z" transform="translate(4.723 4.643)" fill="none" stroke="#777" stroke-linecap="round" stroke-linejoin="round" stroke-width="1.5"/>
        <path id="Stroke_5" data-name="Stroke 5" d="M19.349,3.18C18.326,2.127,16.358,0,14.219,0S10.845,4.692,8.787,4.692,4.859,2.57,3.21,3.93A17.814,17.814,0,0,0,0,8.068" transform="translate(1.109 10.344)" fill="none" stroke="#777" stroke-linecap="round" stroke-linejoin="round" stroke-width="1.5"/>
      </g>
    </g>
  </g>
</svg>
